<?xml version="1.0" encoding="UTF-8" standalone="no"?>
<svg
   xmlns:dc="http://purl.org/dc/elements/1.1/"
   xmlns:cc="http://creativecommons.org/ns#"
   xmlns:rdf="http://www.w3.org/1999/02/22-rdf-syntax-ns#"
   xmlns:svg="http://www.w3.org/2000/svg"
   xmlns="http://www.w3.org/2000/svg"
   xmlns:sodipodi="http://sodipodi.sourceforge.net/DTD/sodipodi-0.dtd"
   xmlns:inkscape="http://www.inkscape.org/namespaces/inkscape"
   version="1.1"
   viewBox="0 0 22 22"
   id="svg45"
   sodipodi:docname="notification.svg"
   inkscape:version="0.92.3 (2405546, 2018-03-11)">
  <sodipodi:namedview
     pagecolor="#b2b2b2"
     bordercolor="#666666"
     borderopacity="1"
     objecttolerance="10"
     gridtolerance="10"
     guidetolerance="10"
     inkscape:pageopacity="0"
     inkscape:pageshadow="2"
     inkscape:window-width="1920"
     inkscape:window-height="1028"
     id="namedview31"
     showgrid="false"
     inkscape:zoom="5.3636364"
     inkscape:cx="20.855546"
     inkscape:cy="4.4963916"
     inkscape:window-x="0"
     inkscape:window-y="26"
     inkscape:window-maximized="1"
     inkscape:current-layer="svg45"
     showguides="false" />
  <metadata
     id="metadata49">
    <rdf:RDF>
      <cc:Work
         rdf:about="">
        <dc:format>image/svg+xml</dc:format>
        <dc:type
           rdf:resource="http://purl.org/dc/dcmitype/StillImage" />
        <dc:title></dc:title>
      </cc:Work>
    </rdf:RDF>
  </metadata>
  <defs
     id="defs3">
    <style
       id="current-color-scheme"
       type="text/css">.ColorScheme-Text { color:#363636; }</style>
  </defs>
  <path
     inkscape:connector-curvature="0"
     d="m -18,23 2,-2 2,2 z"
     class="ColorScheme-Text"
     id="expander-bottom"
     style="color:#363636;fill:#ffffff;fill-opacity:1" />
  <path
     inkscape:connector-curvature="0"
     d="m -18,17 2,2 2,-2 z"
     class="ColorScheme-Text"
     id="expander-top"
     style="color:#363636;fill:#ffffff;fill-opacity:1" />
  <path
     inkscape:connector-curvature="0"
     d="m -13,18 -2,2 2,2 z"
     class="ColorScheme-Text"
     id="expander-right"
     style="color:#363636;fill:#ffffff;fill-opacity:1" />
  <path
     inkscape:connector-curvature="0"
     d="m -19,18 2,2 -2,2 z"
     class="ColorScheme-Text"
     id="expander-left"
     style="color:#363636;fill:#ffffff;fill-opacity:1" />
  <g
     class="ColorScheme-Text"
     id="notification-empty"
     style="color:#363636;fill:currentColor">
    <rect
       y="0"
       x="0"
       id="rect9"
       ry="0"
       height="22"
       width="22"
       style="opacity:0" />
    <path
       inkscape:connector-curvature="0"
       id="path11"
       class="ColorScheme-Text"
       d="m 10.995359,3.3143066 c -0.992608,0.00584 -1.7465964,0.8947479 -1.5903755,1.8749719 l -0.034778,0.011065 c -1.882583,0.6699211 -3.229804,2.4673168 -3.229804,4.5799392 v 1.6204853 h 0.00317 c -1.529e-4,0.680613 -0.2667408,1.32909 -0.6133968,1.895532 -0.3882367,0.634394 -1.1484243,1.204032 -1.5777477,1.577748 -0.2881584,0.25086 -0.3170876,0.829102 0,1.146157 0.1605995,0.1606 0.370251,0.237642 0.580202,0.235561 h 12.934743 c 0.20995,0.0021 0.419603,-0.07497 0.580201,-0.235561 0.317087,-0.317088 0.28816,-0.895313 0,-1.146157 C 17.61825,14.5003 16.85803,13.930652 16.469825,13.2963 16.12317,12.72985 15.856584,12.081342 15.856428,11.400768 h 0.003 V 9.7802827 c 0,-2.1126224 -1.34722,-3.9100506 -3.229801,-4.5799375 l -0.03478,-0.011065 c 0.156242,-0.9802219 -0.597754,-1.8691418 -1.590298,-1.87497 -0.0016,-9.7e-6 -0.003,4.9e-6 -0.0048,0 -0.0016,4.7e-6 -0.003,-9.2e-6 -0.0048,0 z m 0.0048,3.2282638 c 1.789417,0 3.240891,1.4498574 3.240891,3.2393532 v 1.6189474 h -0.003 c 3.8e-4,1.109895 0.372065,2.206434 1.086098,3.041692 l 0.167577,0.196036 H 6.50845 l 0.1675769,-0.196036 c 0.6433622,-0.890865 1.0856933,-1.931797 1.086098,-3.041692 h -0.00317 V 9.7819236 C 7.7589627,7.9925087 9.2104358,6.5425704 10.99985,6.5425704 Z M 9.3796484,17.065206 c 0,1.080271 0.8102426,1.620487 1.6204856,1.620487 0.810243,0 1.620487,-0.540151 1.620487,-1.620487 z"
       style="color:#363636;fill:#ffffff;fill-opacity:1;stroke-width:0.80943346" />
  </g>
  <g
     transform="translate(23.411898,-0.18650121)"
     class="ColorScheme-Text"
     id="notification-progress-active"
     style="color:#363636;fill:currentColor">
    <rect
       id="rect14"
       height="22"
       width="22"
       y="-1"
       x="40"
       class="ColorScheme-Text"
       style="color:#363636;fill:currentColor;fill-opacity:0" />
    <path
       inkscape:connector-curvature="0"
       id="path16"
       class="ColorScheme-Text"
       d="m 51.000164,4.9049206 a 5.9237288,5.9237288 0 0 0 -5.923728,5.9237294 5.9237288,5.9237288 0 0 0 5.923728,5.923728 5.9237288,5.9237288 0 0 0 5.923729,-5.923728 5.9237288,5.9237288 0 0 0 -5.923729,-5.9237294 z m 0,1.3163841 A 4.6073446,4.6073446 0 0 1 55.607509,10.82865 4.6073446,4.6073446 0 0 1 51.000164,15.435994 4.6073446,4.6073446 0 0 1 46.39282,10.82865 4.6073446,4.6073446 0 0 1 51.000164,6.2213047 Z"
       style="color:#363636;stroke-width:0.6581921;fill:#ffffff;fill-opacity:1" />
    <circle
       id="circle18"
       class="ColorScheme-Text"
       r="3.9491525"
       cy="10.82865"
       cx="51.000164"
       style="color:#363636;stroke-width:0.6581921;fill:#ffffff;fill-opacity:1" />
  </g>
  <g
     style="color:#363636;fill:currentColor"
     id="notification-progress-inactive"
     transform="matrix(0.80508475,0,0,0.80508475,64.79461,43.09322)"
     class="ColorScheme-Text">
    <rect
       style="fill-opacity:0"
       x="40"
       y="-1"
       width="22"
       height="22"
       id="rect23" />
    <path
       style="color:#363636;fill:#ffffff;fill-opacity:1"
       class="ColorScheme-Text"
       d="m 51,1 a 9,9 0 0 0 -9,9 9,9 0 0 0 9,9 9,9 0 0 0 9,-9 9,9 0 0 0 -9,-9 z m 0,2 a 7,7 0 0 1 7,7 7,7 0 0 1 -7,7 7,7 0 0 1 -7,-7 7,7 0 0 1 7,-7 z"
       id="path25" />
    <circle
       style="color:#363636;opacity:0.15;fill:#ffffff;fill-opacity:1"
       class="ColorScheme-Text"
       cx="51"
       cy="10"
       r="6"
       id="circle27" />
  </g>
  <g
     class="ColorScheme-Text"
     id="notification-active"
     style="color:#363636;fill:#ffffff;fill-opacity:1"
     transform="translate(33.222662,0.63723587)">
    <rect
       y="0"
       x="0"
       id="rect9-6"
       ry="0"
       height="22"
       width="22"
       style="opacity:0;fill:#ffffff;fill-opacity:1" />
    <path
       style="color:#363636;fill:#ffffff;fill-opacity:1;stroke-width:0.80793059"
       d="M 10.703985,3.2190237 C 9.7143714,3.2262037 8.9614054,4.1133191 9.1172134,5.0909554 l -0.0345,0.011539 C 7.20363,5.7711715 5.8585763,7.5655376 5.8585763,9.6742378 v 1.6166692 h 0.0046 c -1.531e-4,0.679349 -0.2679999,1.327238 -0.6140127,1.892628 -0.387516,0.633216 -1.1444476,1.202251 -1.5729737,1.575273 -0.287624,0.250394 -0.3164993,0.82647 0,1.142936 0.1603014,0.160303 0.3676552,0.236643 0.5772168,0.234566 H 17.166046 c 0.209561,0.0021 0.416915,-0.07428 0.577216,-0.234566 0.316498,-0.316498 0.287625,-0.892558 0,-1.142936 -0.428525,-0.373054 -1.185489,-0.942099 -1.572973,-1.575273 -0.346012,-0.565398 -0.613858,-1.213319 -0.614011,-1.892628 h 0.0046 v -0.390985 c -0.453151,0.241119 -0.959643,0.390944 -1.503984,0.390944 -0.0386,0 -0.07438,-0.01016 -0.11268,-0.01151 v 0.01151 h -0.0023 c 3.8e-4,1.107835 0.370438,2.201858 1.083145,3.035565 l 0.167877,0.195472 H 6.2264564 L 6.3943333,14.326431 C 7.0365008,13.437221 7.477073,12.398701 7.477477,11.290866 H 7.475127 V 9.6764983 C 7.4751352,7.8904037 8.9223684,6.443162 10.708459,6.443162 h 0.0023 c 0.173579,0 0.33974,0.024279 0.505927,0.050594 0.303689,-0.5528297 0.758411,-1.005592 1.313112,-1.3062114 -0.06541,-0.026574 -0.126378,-0.06132 -0.193173,-0.085093 l -0.03453,-0.011539 C 12.458046,4.1125111 11.70607,3.2247987 10.715368,3.218981 c -0.0015,-9.5e-6 -0.0052,5.7e-6 -0.0069,0 h -0.0023 z m 3.352918,2.6791161 A 2.1403301,2.1403301 0 0 0 11.918211,8.0368326 2.1403301,2.1403301 0 0 0 14.056903,10.177826 2.1403301,2.1403301 0 0 0 16.197896,8.0368326 2.1403301,2.1403301 0 0 0 14.056903,5.8981398 Z M 9.0919164,16.945755 c 0,1.078265 0.810229,1.616668 1.6189666,1.616668 0.808739,0 1.616669,-0.538338 1.616669,-1.616668 z"
       id="path11-7"
       inkscape:connector-curvature="0" />
  </g>
  <g
     style="color:#363636;fill:currentColor"
     id="notification-disabled"
     class="ColorScheme-Text"
     transform="translate(0.51270682,-27.526192)">
    <rect
       style="opacity:0"
       width="22"
       height="22"
       ry="0"
       id="rect890"
       x="0"
       y="0" />
    <path
       style="color:#363636;opacity:0.39800002;fill:#ffffff;fill-opacity:1;stroke-width:0.80890179"
       d="m 10.994303,3.2563092 c -0.991957,0.00583 -1.7454488,0.8941602 -1.5893309,1.8737404 l -0.034758,0.011057 C 7.4888705,5.8105883 6.1425345,7.6068035 6.1425345,9.7180383 v 1.6194207 h 0.00317 c -1.529e-4,0.680168 -0.2665657,1.328218 -0.612994,1.894286 -0.3879815,0.63398 -1.1476701,1.203243 -1.5767115,1.576715 -0.2879689,0.250694 -0.3168793,0.828555 0,1.145403 0.1604942,0.160495 0.3700079,0.237486 0.579821,0.235406 h 12.926244 c 0.209813,0.0021 0.419328,-0.07492 0.579822,-0.235406 0.316878,-0.316879 0.287969,-0.894726 0,-1.145403 -0.429041,-0.373503 -1.188763,-0.942778 -1.576712,-1.576715 -0.346427,-0.566077 -0.612839,-1.214158 -0.612994,-1.894286 h 0.0031 V 9.7180383 c 0,-2.1112348 -1.346337,-3.9074824 -3.227681,-4.5769294 l -0.03475,-0.011058 c 0.156093,-0.9795784 -0.597407,-1.8679146 -1.589298,-1.8737388 -0.0015,-9.6e-6 -0.0031,5e-6 -0.0048,0 -0.0015,4.9e-6 -0.0031,-9.3e-6 -0.0048,0 z m 0.0048,3.2261435 c 1.788242,0 3.238763,1.4489049 3.238763,3.2372253 v 1.617886 h -0.0031 c 3.8e-4,1.109165 0.371821,2.204984 1.085386,3.039692 l 0.167546,0.195908 H 6.5103413 l 0.1674668,-0.195908 c 0.6429394,-0.890278 1.0849802,-1.930527 1.0853846,-3.039692 h -0.00317 V 9.719678 C 7.7600326,7.9314385 9.2105522,6.4824527 10.99879,6.4824527 Z M 9.3796534,16.998178 c 0,1.079559 0.8097106,1.619422 1.6194216,1.619422 0.80971,0 1.619422,-0.539796 1.619422,-1.619422 z"
       class="ColorScheme-Text"
       id="path892"
       inkscape:connector-curvature="0" />
  </g>
  <g
     id="notification-inactive"
     transform="translate(-52.140749,-24.863859)">
    <g
       class="ColorScheme-Text"
       id="g900"
       style="color:#363636;opacity:0.47400004;fill:currentColor"
       transform="translate(101.9738,-3.6780867)">
      <rect
         y="0"
         x="0"
         id="rect896"
         ry="0"
         height="22"
         width="22"
         style="opacity:0" />
      <path
         style="color:#363636;fill:#ffffff;fill-opacity:1;stroke-width:0.80367231"
         d="M 10.985993,3.307366 C 10.001595,3.314516 9.2525971,4.1969479 9.4075838,5.1694314 l -0.034317,0.011478 C 7.5040867,5.8460623 6.1661224,7.6309708 6.1661224,9.7285567 v 1.6081473 h 0.00457 c -1.524e-4,0.67577 -0.2665873,1.320244 -0.6107764,1.882653 -0.3854736,0.629879 -1.1384157,1.195915 -1.5646831,1.566972 -0.2861081,0.249074 -0.3148312,0.822114 0,1.136912 0.1594564,0.159455 0.3657174,0.235395 0.5741743,0.233329 H 17.413994 c 0.208456,0.002 0.414718,-0.07387 0.574175,-0.233329 0.314829,-0.314832 0.286107,-0.887854 0,-1.136912 C 17.561901,14.41524 16.808928,13.849195 16.423486,13.219357 16.079298,12.65694 15.812863,12.012434 15.81271,11.336704 h 0.0045 v -0.388922 c -0.450762,0.239847 -0.954584,0.388883 -1.496057,0.388883 -0.03839,0 -0.074,-0.01009 -0.112086,-0.01144 v 0.01144 h -0.0024 c 3.77e-4,1.101995 0.368485,2.190252 1.077436,3.019565 l 0.16699,0.194441 H 6.5320635 L 6.6990556,14.35623 C 7.3378383,13.471706 7.7760885,12.43866 7.7764903,11.336665 H 7.77415 V 9.7308055 c 9.5e-6,-1.7766807 1.4396151,-3.2162946 3.216292,-3.2162946 h 0.0024 c 0.172663,0 0.337951,0.024151 0.503262,0.050328 0.302088,-0.549916 0.754412,-1.0002919 1.30619,-1.2993268 -0.06506,-0.026435 -0.125713,-0.060998 -0.192155,-0.084644 l -0.03436,-0.011478 c 0.155084,-0.9732448 -0.59293,-1.8562783 -1.578409,-1.8620653 -0.0015,-9.4e-6 -0.0052,5.8e-6 -0.007,0 h -0.0024 z m 3.335246,2.6649952 A 2.1290492,2.1290492 0 0 0 12.193818,8.0997819 2.1290492,2.1290492 0 0 0 14.321239,10.229491 2.1290492,2.1290492 0 0 0 16.450948,8.0997819 2.1290492,2.1290492 0 0 0 14.321239,5.9723612 Z M 9.3824207,16.961747 c 0,1.072583 0.8059583,1.608149 1.6104333,1.608149 0.804476,0 1.608148,-0.535501 1.608148,-1.608149 z"
         id="path898"
         inkscape:connector-curvature="0" />
    </g>
    <path
       sodipodi:nodetypes="cccscccccccccccccsccccccccccsscccccccccscc"
       inkscape:connector-curvature="0"
       id="path902-5"
       d="m 112.9598,-0.37072187 c -0.98442,0.007145 -1.73341,0.88958187 -1.57842,1.86206657 l -0.0343,0.011478 c -1.86918,0.6651529 -3.20715,2.4500615 -3.20715,4.5476473 v 1.6081473 h 0.004 c -1.5e-4,0.6757689 -0.26659,1.3202433 -0.61079,1.8826527 -0.38547,0.629879 -1.13841,1.195914 -1.56468,1.566972 -0.2861,0.249073 -0.31482,0.822114 0,1.136912 0.15947,0.159455 0.36574,0.235395 0.57419,0.233328 h 12.84458 c 0.20847,0.002 0.41473,-0.07389 0.57419,-0.233328 0.31481,-0.314832 0.28611,-0.887855 0,-1.136912 -0.42628,-0.371091 -1.17925,-0.937134 -1.5647,-1.566972 -0.34418,-0.5624176 -0.61062,-1.2069237 -0.61077,-1.8826527 h 0.004 v -0.388923 c -0.45078,0.239847 -0.95459,0.3888831 -1.49606,0.3888831 -0.0383,0 -0.074,-0.010077 -0.1121,-0.011478 v 0.011478 h -0.002 c 3.8e-4,1.1019953 0.36849,2.1902529 1.07745,3.0195656 l 0.16699,0.194441 h -8.91916 l 0.16699,-0.194441 c 0.63879,-0.8845243 1.07703,-1.9175703 1.07743,-3.0195656 h -0.002 V 6.0527188 c 1e-5,-1.7766807 1.43962,-3.2162946 3.21629,-3.2162946 h 0.002 c 0.17267,0 0.33796,0.024151 0.50327,0.050328 0.30208,-0.549916 0.75441,-1.0002919 1.3062,-1.2993268 -0.0651,-0.026435 -0.12573,-0.060998 -0.19217,-0.084644 l -0.0343,-0.011478 c 0.15509,-0.97324597 -0.59292,-1.85627951 -1.5784,-1.86206653 -0.001,-9.38e-6 -0.004,5.85e-6 -0.006,0 h -0.002 z M 111.35621,13.28366 c 0,1.072582 0.80597,1.608148 1.61044,1.608148 0.80447,0 1.60815,-0.535501 1.60815,-1.608148 z"
       style="color:#363636;opacity:1;fill:#ffffff;fill-opacity:1;stroke-width:0.80367231" />
  </g>
</svg>
