<?xml version="1.0" encoding="UTF-8" standalone="no"?>
<svg
   id="svg19"
   viewBox="0 0 54 32"
   version="1.1"
   sodipodi:docname="apport.svg"
   inkscape:version="1.1.2 (0a00cf5339, 2022-02-04)"
   xmlns:inkscape="http://www.inkscape.org/namespaces/inkscape"
   xmlns:sodipodi="http://sodipodi.sourceforge.net/DTD/sodipodi-0.dtd"
   xmlns="http://www.w3.org/2000/svg"
   xmlns:svg="http://www.w3.org/2000/svg"
   xmlns:rdf="http://www.w3.org/1999/02/22-rdf-syntax-ns#"
   xmlns:cc="http://creativecommons.org/ns#"
   xmlns:dc="http://purl.org/dc/elements/1.1/">
  <sodipodi:namedview
     id="namedview13"
     pagecolor="#ffffff"
     bordercolor="#666666"
     borderopacity="1.0"
     inkscape:pageshadow="2"
     inkscape:pageopacity="0.0"
     inkscape:pagecheckerboard="0"
     showgrid="false"
     inkscape:zoom="24.796296"
     inkscape:cx="27"
     inkscape:cy="16.010456"
     inkscape:window-width="1920"
     inkscape:window-height="1002"
     inkscape:window-x="0"
     inkscape:window-y="0"
     inkscape:window-maximized="1"
     inkscape:current-layer="svg19" />
  <metadata
     id="metadata21">
    <rdf:RDF>
      <cc:Work
         rdf:about="">
        <dc:format>image/svg+xml</dc:format>
        <dc:type
           rdf:resource="http://purl.org/dc/dcmitype/StillImage" />
      </cc:Work>
    </rdf:RDF>
  </metadata>
  <defs
     id="defs5">
    <style
       type="text/css"
       id="current-color-scheme"> .ColorScheme-Text { color:#363636; } </style>
  </defs>
  <g
     id="apport"
     class="ColorScheme-Text">
    <path
       id="path7"
       fill="none"
       d="M 22,0 V 32 H 54 V 0 Z" />
    <path
       id="path9"
       fill="currentColor"
       d="m 29,4 c -1.662,0 -3,1.338 -3,3 v 18 c 0,1.662 1.338,3 3,3 h 18 c 1.662,0 3,-1.338 3,-3 V 7 C 50,5.338 48.662,4 47,4 Z m 0,2 h 18 c 0.554,0 1,0.446 1,1 v 18 c 0,0.554 -0.446,1 -1,1 H 29 c -0.554,0 -1,-0.446 -1,-1 V 7 c 0,-0.554 0.446,-1 1,-1 z m 8,2 c -0.554,0 -1,0.446 -1,1 v 8 c 0,0.554 0.446,1 1,1 h 2 c 0.554,0 1,-0.446 1,-1 V 9 C 40,8.446 39.554,8 39,8 Z m 0,12 c -0.554,0 -1,0.446 -1,1 v 2 c 0,0.554 0.446,1 1,1 h 2 c 0.554,0 1,-0.446 1,-1 v -2 c 0,-0.554 -0.446,-1 -1,-1 z"
       class="ColorScheme-Text" />
  </g>
  <g
     id="22-22-apport">
    <path
       id="path12"
       fill="none"
       d="m0 10v22h22v-22z" />
    <g
       id="g16"
       fill="currentColor"
       class="ColorScheme-Text">
      <path
         id="path14"
         d="m5 13c-1.108 0-2 0.892-2 2v12c0 1.108 0.892 2 2 2h12c1.108 0 2-0.892 2-2v-12c0-1.108-0.892-2-2-2h-12zm0 2h12v12h-12v-12zm6 1c-0.554 0-1 0.446-1 1v5c0 0.554 0.446 1 1 1s1-0.446 1-1v-5c0-0.554-0.446-1-1-1zm0 8a1 1 0 0 0-1 1 1 1 0 0 0 1 1 1 1 0 0 0 1-1 1 1 0 0 0-1-1z" />
    </g>
  </g>
</svg>
