<?xml version="1.0" encoding="UTF-8" standalone="no"?>
<svg
   id="svg"
   version="1.1"
   viewBox="0 0 22 22"
   sodipodi:docname="elisa.svg"
   inkscape:version="1.1.2 (0a00cf5339, 2022-02-04)"
   xmlns:inkscape="http://www.inkscape.org/namespaces/inkscape"
   xmlns:sodipodi="http://sodipodi.sourceforge.net/DTD/sodipodi-0.dtd"
   xmlns="http://www.w3.org/2000/svg"
   xmlns:svg="http://www.w3.org/2000/svg"
   xmlns:rdf="http://www.w3.org/1999/02/22-rdf-syntax-ns#"
   xmlns:cc="http://creativecommons.org/ns#"
   xmlns:dc="http://purl.org/dc/elements/1.1/">
  <sodipodi:namedview
     pagecolor="#c8c8c8"
     bordercolor="#666666"
     borderopacity="1"
     objecttolerance="10"
     gridtolerance="10"
     guidetolerance="10"
     inkscape:pageopacity="0"
     inkscape:pageshadow="2"
     inkscape:window-width="1920"
     inkscape:window-height="1030"
     id="namedview86"
     showgrid="true"
     inkscape:zoom="6.227361"
     inkscape:cx="38.138145"
     inkscape:cy="34.926512"
     inkscape:window-x="0"
     inkscape:window-y="24"
     inkscape:window-maximized="1"
     inkscape:current-layer="svg"
     inkscape:pagecheckerboard="0"
     inkscape:snap-bbox="true"
     inkscape:bbox-nodes="true">
    <inkscape:grid
       type="xygrid"
       id="grid862" />
  </sodipodi:namedview>
  <defs
     id="defs9">
    <style
       id="current-color-scheme"
       type="text/css">.ColorScheme-Text {
        color:#7B7C7E;
      }
      .ColorScheme-Background{
        color:#EFF0F1;
      }
      .ColorScheme-Highlight{
        color:#3DAEE6;
      }
      .ColorScheme-ViewText {
        color:#7B7C7E;
      }
      .ColorScheme-ViewBackground{
        color:#FCFCFC;
      }
      .ColorScheme-ViewHover {
        color:#3DAEE6;
      }
      .ColorScheme-ViewFocus{
        color:#1E92FF;
      }
      .ColorScheme-ButtonText {
        color:#7B7C7E;
      }
      .ColorScheme-ButtonBackground{
        color:#EFF0F1;
      }
      .ColorScheme-ButtonHover {
        color:#3DAEE6;
      }
      .ColorScheme-ButtonFocus{
        color:#1E92FF;
      }</style>
    <style
       type="text/css"
       id="style3">.ColorScheme-Text { color:#dedede; } .ColorScheme-Highlight { color:#5294e2; } .ColorScheme-ButtonBackground { color:#dedede; }</style>
    <style
       type="text/css"
       id="style5" />
    <style
       type="text/css"
       id="style7">.ColorScheme-Text {
            color:#232629;
        }
        .ColorScheme-Background {
            color:#eff0f1;
        }
        .ColorScheme-ViewBackground {
            color:#fcfcfc;
        }
        .ColorScheme-ButtonFocus {
            color:#3daee9;
        }
        .ColorScheme-PositiveText {
            color:#27ae60;
        }
        .ColorScheme-NeutralText {
            color:#f67400;
        }
        .ColorScheme-NegativeText {
            color:#da4453;
        }</style>
  </defs>
  <metadata
     id="metadata11">
    <rdf:RDF>
      <cc:Work
         rdf:about="">
        <dc:format>image/svg+xml</dc:format>
        <dc:type
           rdf:resource="http://purl.org/dc/dcmitype/StillImage" />
      </cc:Work>
    </rdf:RDF>
  </metadata>
  <g
     id="22-22-elisa"
     transform="translate(-5,-5)"
     class="ColorScheme-Text">
    <rect
       style="opacity:0.00100002"
       width="22"
       height="22"
       x="5"
       y="5"
       id="rect2" />
    <path
       style="fill:currentColor"
       d="M 9.5,8 C 7.5696486,8 6,9.5696486 6,11.5 v 9 c 0,1.291373 0.710902,2.409063 1.7539062,3.015625 a 1.0001,1.0001 0 0 1 0,-0.002 L 8.234375,22.650391 C 7.4954563,22.218896 7,21.427732 7,20.5 v -9 C 7,10.106351 8.1063514,9 9.5,9 h 13 c 1.393649,0 2.5,1.106351 2.5,2.5 v 9 c 0,0.927732 -0.495456,1.718896 -1.234375,2.150391 l 0.480469,0.863281 a 1.0001,1.0001 0 0 1 0,0.002 C 25.289098,22.909063 26,21.791373 26,20.5 v -9 C 26,9.5696486 24.430351,8 22.5,8 Z m 2.410156,6 C 10.852684,14 10,14.890883 10,15.996094 v 0.0098 C 10,17.111072 10.852684,18 11.910156,18 h 8.179688 C 21.147318,17.999921 22,17.111072 22,16.005859 v -0.0098 C 22,14.890853 21.147318,14 20.089844,14 Z M 12,15 c 0.552285,0 1,0.447733 1,1 0,0.552267 -0.447715,1 -1,1 -0.552285,0 -1,-0.447733 -1,-1 0,-0.552267 0.447715,-1 1,-1 z m 2,0 h 4 v 2 h -4 z m 6,0 c 0.552285,0 1,0.447733 1,1 0,0.552267 -0.447715,1 -1,1 -0.552285,0 -1,-0.447733 -1,-1 0,-0.552267 0.447715,-1 1,-1 z m -9.705078,6 -1.6679689,3 H 23.373047 L 21.705078,21 Z M 10.75,22 A 0.75,0.75 0 0 1 11.5,22.75 0.75,0.75 0 0 1 10.75,23.5 0.75,0.75 0 0 1 10,22.75 0.75,0.75 0 0 1 10.75,22 Z m 10.5,0 A 0.75,0.75 0 0 1 22,22.75 0.75,0.75 0 0 1 21.25,23.5 0.75,0.75 0 0 1 20.5,22.75 0.75,0.75 0 0 1 21.25,22 Z"
       id="path4" />
    <path
       style="opacity:0.5;fill:currentColor"
       d="m 14,15 v 2 h 1.825598 c 0.114652,-0.321 0.173766,-0.6592 0.174803,-1 -10e-4,-0.3408 -0.06015,-0.679 -0.174803,-1 z"
       id="path6" />
  </g>
  <g
     id="elisa"
     class="ColorScheme-Text"
     transform="translate(-32,-10)">
    <rect
       style="opacity:0.00100002"
       width="32"
       height="32"
       x="0"
       y="0"
       id="rect9" />
    <path
       style="fill:currentColor"
       d="M 7,4 C 4.2386486,4 2,6.2386486 2,9 v 13 c 0,1.922781 1.0979235,3.573583 2.6894531,4.410156 L 5.2128906,25.568359 C 3.9002023,24.915544 3,23.577587 3,22 V 9 C 3,6.7753514 4.7753514,5 7,5 h 19 c 2.224649,0 4,1.7753514 4,4 v 13 c 0,1.577587 -0.900202,2.915544 -2.212891,3.568359 l 0.523438,0.841797 C 29.902076,25.573583 31,23.922781 31,22 V 9 C 31,6.2386486 28.761351,4 26,4 Z m 3.5,9 A 2.5,2.5 0 0 0 8,15.5 2.5,2.5 0 0 0 10.5,18 h 12 A 2.5,2.5 0 0 0 25,15.5 2.5,2.5 0 0 0 22.5,13 Z m 0,1 C 11.328427,14 12,14.6716 12,15.5 12,16.3284 11.328427,17 10.5,17 9.6715726,17 9,16.3284 9,15.5 9,14.6716 9.6715726,14 10.5,14 Z m 2.5,0 h 7 v 3 h -7 z m 9.5,0 C 23.328427,14 24,14.6716 24,15.5 24,16.3284 23.328427,17 22.5,17 21.671573,17 21,16.3284 21,15.5 21,14.6716 21.671573,14 22.5,14 Z M 7.9882812,23 5.5,27 h 22 L 25.011719,23 Z M 9,24 a 1,1 0 0 1 1,1 1,1 0 0 1 -1,1 1,1 0 0 1 -1,-1 1,1 0 0 1 1,-1 z m 15,0 a 1,1 0 0 1 1,1 1,1 0 0 1 -1,1 1,1 0 0 1 -1,-1 1,1 0 0 1 1,-1 z"
       id="path11" />
    <path
       style="opacity:0.5;fill:currentColor"
       d="m 13,14 v 3 h 2.737848 C 15.909792,16.518499 15.998445,16.0112 16,15.5 15.9985,14.9888 15.90979,14.481501 15.737848,14 Z"
       id="path13" />
  </g>
</svg>
