<?xml version="1.0" encoding="UTF-8" standalone="no"?>
<svg
   id="svg19"
   viewBox="0 0 32 32"
   version="1.1"
   sodipodi:docname="kate.svg"
   inkscape:version="1.1.2 (0a00cf5339, 2022-02-04)"
   xmlns:inkscape="http://www.inkscape.org/namespaces/inkscape"
   xmlns:sodipodi="http://sodipodi.sourceforge.net/DTD/sodipodi-0.dtd"
   xmlns="http://www.w3.org/2000/svg"
   xmlns:svg="http://www.w3.org/2000/svg"
   xmlns:rdf="http://www.w3.org/1999/02/22-rdf-syntax-ns#"
   xmlns:cc="http://creativecommons.org/ns#"
   xmlns:dc="http://purl.org/dc/elements/1.1/">
  <sodipodi:namedview
     id="namedview13"
     pagecolor="#ffffff"
     bordercolor="#666666"
     borderopacity="1.0"
     inkscape:pageshadow="2"
     inkscape:pageopacity="0.0"
     inkscape:pagecheckerboard="0"
     showgrid="false"
     showguides="true"
     inkscape:guide-bbox="true"
     inkscape:zoom="16"
     inkscape:cx="18.15625"
     inkscape:cy="15.53125"
     inkscape:window-width="1920"
     inkscape:window-height="1033"
     inkscape:window-x="0"
     inkscape:window-y="25"
     inkscape:window-maximized="1"
     inkscape:current-layer="svg19" />
  <metadata
     id="metadata21">
    <rdf:RDF>
      <cc:Work
         rdf:about="">
        <dc:format>image/svg+xml</dc:format>
        <dc:type
           rdf:resource="http://purl.org/dc/dcmitype/StillImage" />
      </cc:Work>
    </rdf:RDF>
  </metadata>
  <defs
     id="defs5">
    <style
       type="text/css"
       id="current-color-scheme"> .ColorScheme-Text { color:#363636; } </style>
  </defs>
  <g
     fill="currentColor"
     class="ColorScheme-Text"
     id="22-22-kate">
    <path
       id="path7"
       fill="none"
       d="m49 5h22v22h-22z" />
    <path
       id="path9"
       d="m59.098 7.004c-1.3134 0.043481-2.7956 0.45116-4.2359 1.4945-1.4953 1.0832-2.1517 1.3791-2.877 1.7392 0.64623 0.04931 4.5128-0.50253 5.1969 1.7687 0.03186-0.0098 0.16724-0.04853 0.21224-0.06191-2.7813 0.77408-4.3328 2.554-3.157 5.0259 1.18 2.4809 3.2189 2.5402 5.7363 4.2241 1.9653 1.3146 2.4461 1.9834 3.7142 3.8055-0.26371-2.5177-1.4821-5.7628-2.0516-7.1925 2.1987 1.3151 3.3134 1.6097 6.3789 1.9308-3.978-2.8317-4.7328-3.3857-7.0098-5.3266-1.5276 0.07701-1.3601 0.06329-2.2609 0.11496 1.1859 1.6735 1.6553 4.1327-0.51291 4.5838-2.0295 0.42222-3.9876-1.3308-3.4312-3.2072 0.60416-2.0375 3.2127-1.6451 5.9486-1.9986 2.7358-0.35344 5.2351-3.037 6.7386-5.023-2.1468 0.73248-4.9009 1.5683-7.9353 2.4378-0.61458-1.2-1.401-3.4673 2.7679-3.6257-0.76362-0.41434-1.9085-0.73326-3.2219-0.68977z" />
  </g>
  <g
     id="kate">
    <g
       fill="currentColor"
       class="ColorScheme-Text"
       id="g2746">
      <rect
         id="rect12"
         fill="none"
         height="32"
         width="32"
         y="-1e-6"
         x="-2.8954e-8" />
    </g>
    <path
       class="ColorScheme-Text"
       d="m 26.971188,4.9014335 c -1.254687,-1.2546866 -3.272893,-1.254686 -4.527579,4e-7 l -1.082528,1.082529 4.529342,4.5293421 1.082528,-1.0825282 c 1.254686,-1.2546866 1.252923,-3.2746565 -0.0018,-4.5293433 z M 19.467537,7.8775068 8.6210903,18.723952 13.150433,23.253294 23.996879,12.406849 Z M 6.9267748,20.418268 5.408766,24.848876 c -0.4935899,1.510299 0.1083492,2.110544 1.6079247,1.618505 l 4.4394273,-1.51977 z"
       fill="currentColor"
       id="path2748" />
  </g>
</svg>
