<?xml version="1.0" encoding="UTF-8" standalone="no"?>
<svg
   version="1.1"
   viewBox="0 0 22 22"
   id="svg49"
   sodipodi:docname="notification.svg"
   inkscape:version="1.1.2 (0a00cf5339, 2022-02-04)"
   xmlns:inkscape="http://www.inkscape.org/namespaces/inkscape"
   xmlns:sodipodi="http://sodipodi.sourceforge.net/DTD/sodipodi-0.dtd"
   xmlns="http://www.w3.org/2000/svg"
   xmlns:svg="http://www.w3.org/2000/svg">
  <sodipodi:namedview
     id="namedview51"
     pagecolor="#1c3a7c"
     bordercolor="#666666"
     borderopacity="1.0"
     inkscape:showpageshadow="2"
     inkscape:pageopacity="0"
     inkscape:pagecheckerboard="0"
     inkscape:deskcolor="#d1d1d1"
     showgrid="true"
     inkscape:zoom="3.7926635"
     inkscape:cx="-54.051724"
     inkscape:cy="48.382884"
     inkscape:window-width="1920"
     inkscape:window-height="1029"
     inkscape:window-x="0"
     inkscape:window-y="0"
     inkscape:window-maximized="1"
     inkscape:current-layer="svg49"
     inkscape:pageshadow="2">
    <inkscape:grid
       type="xygrid"
       id="grid340" />
  </sodipodi:namedview>
  <defs
     id="defs3">
    <style
       id="current-color-scheme"
       type="text/css">.ColorScheme-Text { color:#363636; }</style>
  </defs>
  <path
     id="expander-bottom"
     d="m-18 23 2-2 2 2z"
     class="ColorScheme-Text"
     fill="currentColor" />
  <path
     id="expander-top"
     d="m-18 17 2 2 2-2z"
     class="ColorScheme-Text"
     fill="currentColor" />
  <path
     id="expander-right"
     d="m-13 18-2 2 2 2z"
     class="ColorScheme-Text"
     fill="currentColor" />
  <path
     id="expander-left"
     d="m-19 18 2 2-2 2z"
     class="ColorScheme-Text"
     fill="currentColor" />
  <g
     id="22-22-notification-empty"
     class="ColorScheme-Text"
     fill="currentColor">
    <rect
       width="22"
       height="22"
       ry="0"
       opacity="0"
       id="rect9" />
    <path
       id="path11"
       class="ColorScheme-Text"
       d="M 11,3.2421875 C 10.408836,3.2420757 9.9295757,3.7213364 9.9296875,4.3125 V 4.32227 C 8.0420141,4.8102397 6.7208906,6.6420562 6.71875,8.5917969 c 0,0 9.911e-4,5.3519691 -1.7753906,6.0175781 -0.017122,0.01062 -0.02478,0.03101 -0.042969,0.04492 -0.067203,0.05263 -0.1252731,0.115982 -0.171875,0.1875 -0.019257,0.02889 -0.041654,0.05101 -0.056641,0.08203 -0.058396,0.11022 -0.089853,0.232704 -0.091797,0.357422 0,0.444095 0.3586387,0.802734 0.8027344,0.802734 H 16.617188 c 0.445164,0 0.802734,-0.358639 0.802734,-0.802734 -0.0019,-0.124718 -0.0334,-0.247202 -0.0918,-0.357422 -0.01499,-0.03211 -0.03649,-0.05315 -0.05469,-0.08203 -0.04717,-0.07168 -0.105915,-0.135044 -0.173829,-0.1875 -0.01713,-0.01289 -0.02477,-0.03422 -0.04297,-0.04492 C 15.280258,13.943766 15.28125,8.5917969 15.28125,8.5917969 15.279126,6.6420562 13.959055,4.8102359 12.070312,4.3222656 V 4.3125 C 12.070424,3.7213366 11.591163,3.242076 11,3.2421875 Z M 8.9316406,17.152344 C 9.1751444,18.096007 10.025428,18.756 11,18.757812 c 0.976027,-3.3e-5 1.828397,-0.660399 2.072266,-1.605468 z"
       sodipodi:nodetypes="cscccccccsscccccccsccccc"
       style="fill:#ffffff;fill-opacity:1" />
  </g>
  <g
     id="22-22-notification-progress-active"
     class="ColorScheme-Text"
     transform="translate(55.997 -.004652)"
     fill="currentColor">
    <rect
       x="40"
       y="-1"
       width="22"
       height="22"
       fill-opacity="0"
       id="rect14" />
    <path
       d="m51 1a9 9 0 0 0-9 9 9 9 0 0 0 9 9 9 9 0 0 0 9-9 9 9 0 0 0-9-9zm0 2a7 7 0 0 1 7 7 7 7 0 0 1-7 7 7 7 0 0 1-7-7 7 7 0 0 1 7-7z"
       id="path16" />
    <circle
       cx="51"
       cy="10"
       r="6"
       id="circle18" />
  </g>
  <g
     id="22-22-notification-progress-inactive"
     class="ColorScheme-Text"
     transform="translate(56.998,39)"
     fill="currentColor">
    <rect
       x="40"
       y="-1"
       width="22"
       height="22"
       fill-opacity="0"
       id="rect21" />
    <path
       class="ColorScheme-Text"
       d="m51 1a9 9 0 0 0-9 9 9 9 0 0 0 9 9 9 9 0 0 0 9-9 9 9 0 0 0-9-9zm0 2a7 7 0 0 1 7 7 7 7 0 0 1-7 7 7 7 0 0 1-7-7 7 7 0 0 1 7-7z"
       fill="currentColor"
       id="path23" />
    <circle
       class="ColorScheme-Text"
       cx="51"
       cy="10"
       r="6"
       fill="currentColor"
       opacity=".15"
       id="circle25" />
  </g>
  <g
     id="22-22-notification-active"
     class="ColorScheme-Text"
     transform="translate(0,28.131)"
     fill="currentColor">
    <rect
       x="51.002"
       y="-31.998"
       width="22"
       height="22"
       ry="0"
       opacity="0"
       id="rect30" />
    <path
       id="path32"
       class="ColorScheme-Text"
       d="m 62.001953,-0.625 c -0.591164,-1.118e-4 -1.070424,0.47914892 -1.070312,1.0703125 v 0.009766 c -1.887673,0.48796972 -3.208798,2.31979058 -3.210938,4.26953128 0,0 9.91e-4,5.3519676 -1.775391,6.0175786 -0.01712,0.01062 -0.02478,0.03101 -0.04297,0.04492 -0.0672,0.05263 -0.125273,0.115982 -0.171875,0.1875 -0.01926,0.02889 -0.04165,0.05101 -0.05664,0.08203 -0.0584,0.11022 -0.08985,0.232706 -0.0918,0.357421 0,0.444099 0.35864,0.802735 0.802735,0.802735 h 11.234375 c 0.445164,0 0.802734,-0.35864 0.802734,-0.802735 -0.0019,-0.124715 -0.0334,-0.247201 -0.0918,-0.357421 -0.01499,-0.03211 -0.03649,-0.05315 -0.05469,-0.08203 -0.04717,-0.07168 -0.105913,-0.135044 -0.173829,-0.1875 -0.01713,-0.01289 -0.02477,-0.03422 -0.04297,-0.04492 -1.070644,-0.401174 -1.493409,-2.5012674 -1.66211,-4.1093755 -0.02612,6.296e-4 -0.05186,0.00195 -0.07813,0.00195 -1.78604,0 -3.25,-1.4639598 -3.25,-3.25 0,-0.9730351 0.434756,-1.8500648 1.119141,-2.4472656 C 63.845597,0.72520504 63.472334,0.55843865 63.072266,0.45507812 V 0.4453125 C 63.072381,-0.14584648 62.593116,-0.62511188 62.001953,-0.625 Z m 4.316406,1.50976562 c -0.10673,0 -0.211243,0.0104574 -0.314453,0.0234375 -0.02871,0.003409 -0.05736,0.007316 -0.08594,0.0117188 -0.09415,0.0151873 -0.187026,0.0351552 -0.277344,0.0605469 -0.01174,0.00317 -0.02346,0.006425 -0.03516,0.009766 -0.105115,0.0312153 -0.205859,0.0691126 -0.304688,0.11328122 -0.01701,0.00762 -0.03394,0.015436 -0.05078,0.023437 -0.08524,0.040427 -0.168443,0.085311 -0.248047,0.1347657 -0.01771,0.010848 -0.0353,0.021917 -0.05273,0.033203 -0.09008,0.059095 -0.174384,0.1234475 -0.25586,0.1933593 -0.01049,0.00903 -0.02091,0.018143 -0.03125,0.027344 -0.07498,0.066515 -0.146375,0.1379093 -0.21289,0.2128906 -0.0092,0.010341 -0.01832,0.020758 -0.02734,0.03125 -0.06991,0.081475 -0.134264,0.1657838 -0.193359,0.2558594 -0.01129,0.01744 -0.02236,0.035019 -0.0332,0.052734 -0.04945,0.079604 -0.09434,0.1628089 -0.134765,0.2480468 -0.008,0.016839 -0.01582,0.033767 -0.02344,0.050781 -0.04335,0.096991 -0.08045,0.1957733 -0.111328,0.2988281 -0.0047,0.016879 -0.0093,0.033807 -0.01367,0.050781 -0.02399,0.086676 -0.04397,0.1754407 -0.05859,0.265625 -0.0044,0.029225 -0.0083,0.058527 -0.01172,0.087891 -0.01298,0.1032094 -0.02344,0.2077232 -0.02344,0.3144531 0,0.1067299 0.01046,0.2112437 0.02344,0.3144532 0.0034,0.029364 0.0073,0.058665 0.01172,0.087891 0.01462,0.090184 0.0346,0.1789494 0.05859,0.265625 0.0044,0.016974 0.0089,0.033902 0.01367,0.050781 0.03088,0.1030549 0.06798,0.2018368 0.111328,0.2988282 0.0076,0.017014 0.01544,0.033942 0.02344,0.050781 0.04043,0.085238 0.08531,0.1684433 0.134765,0.2480469 0.01085,0.017715 0.02192,0.035295 0.0332,0.052734 0.05909,0.090076 0.123447,0.174384 0.193359,0.2558594 0.009,0.010492 0.01814,0.020909 0.02734,0.03125 0.06651,0.074981 0.137909,0.1463752 0.21289,0.2128906 0.01034,0.0092 0.02076,0.018316 0.03125,0.027344 0.08148,0.069912 0.165784,0.1342643 0.25586,0.1933594 0.01744,0.011286 0.03502,0.022355 0.05273,0.033203 0.0796,0.049455 0.162809,0.094339 0.248047,0.1347656 0.01684,0.008 0.03377,0.015815 0.05078,0.023437 0.09883,0.044169 0.199573,0.082066 0.304688,0.1132813 0.0117,0.00334 0.02341,0.0066 0.03516,0.00977 0.09032,0.025392 0.183195,0.045359 0.277344,0.060547 0.02858,0.0044 0.05723,0.00831 0.08594,0.011719 0.10321,0.01298 0.207723,0.023437 0.314453,0.023437 0.10673,0 0.211244,-0.010457 0.314453,-0.023437 0.02936,-0.00339 0.05867,-0.00729 0.08789,-0.011719 0.09018,-0.01462 0.17895,-0.034598 0.265625,-0.058594 0.01697,-0.00438 0.0339,-0.00894 0.05078,-0.013672 0.103055,-0.03088 0.201837,-0.06798 0.298829,-0.1113282 0.01701,-0.00762 0.03394,-0.015436 0.05078,-0.023437 0.08524,-0.040427 0.168443,-0.08531 0.248047,-0.1347656 0.01771,-0.010848 0.0353,-0.021917 0.05273,-0.033203 0.09008,-0.059095 0.174384,-0.1234475 0.255859,-0.1933594 0.01118,-0.00959 0.0222,-0.019514 0.0332,-0.029297 0.06769,-0.060181 0.132556,-0.1242858 0.19336,-0.1914062 0.01921,-0.019868 0.0381,-0.040053 0.05664,-0.060547 0.06582,-0.077647 0.12556,-0.1587822 0.181641,-0.2441406 0.01198,-0.01937 0.02371,-0.038903 0.03516,-0.058594 0.04398,-0.071071 0.08427,-0.1451309 0.121094,-0.2207031 0.01494,-0.030305 0.02927,-0.060911 0.04297,-0.091797 0.04004,-0.091482 0.07451,-0.184443 0.103516,-0.28125 0.0047,-0.016879 0.0093,-0.033807 0.01367,-0.050781 0.024,-0.086676 0.04398,-0.1754408 0.05859,-0.265625 0.0044,-0.029225 0.0083,-0.058527 0.01172,-0.087891 0.01298,-0.1032095 0.02344,-0.2077233 0.02344,-0.3144532 -1.81e-4,-0.085464 -0.0047,-0.1708627 -0.01367,-0.2558594 -0.0082,-0.083251 -0.0206,-0.1660375 -0.03711,-0.2480468 -0.0169,-0.080406 -0.03776,-0.1599295 -0.0625,-0.2382813 v -0.00195 c -4.34e-4,-0.0014 -0.0015,-0.00251 -0.002,-0.00391 -0.02375,-0.076135 -0.05112,-0.1510909 -0.08203,-0.2246094 -0.0262,-0.061674 -0.05487,-0.1222699 -0.08594,-0.1816406 -0.0039,-0.00783 -0.0078,-0.015646 -0.01172,-0.023438 -0.0092,-0.017216 -0.01969,-0.033809 -0.0293,-0.050781 -0.02998,-0.053235 -0.0619,-0.1053536 -0.0957,-0.15625 -0.0026,-0.00457 -0.0052,-0.00912 -0.0078,-0.013672 -0.0042,-0.0062 -0.0094,-0.011414 -0.01367,-0.017578 -0.03926,-0.058374 -0.08096,-0.1150652 -0.125,-0.1699219 -0.0013,-0.0013 -0.0026,-0.00261 -0.0039,-0.00391 -0.05115,-0.061812 -0.105252,-0.1211252 -0.162109,-0.1777344 -0.05661,-0.056857 -0.115923,-0.1109563 -0.177735,-0.1621094 -0.0014,-0.00117 -0.0025,-0.00274 -0.0039,-0.00391 -0.05486,-0.044039 -0.111548,-0.085743 -0.169922,-0.125 -0.0058,-0.00458 -0.0117,-0.00914 -0.01758,-0.013672 -0.0031,-0.00211 -0.0066,-0.00377 -0.0098,-0.00586 l -0.0039,-0.00195 c -0.05585,-0.037454 -0.113188,-0.072638 -0.171875,-0.1054687 -0.0071,-0.00459 -0.0143,-0.00915 -0.02148,-0.013672 -0.0038,-0.00208 -0.0079,-0.0038 -0.01172,-0.00586 -0.06748,-0.035696 -0.136566,-0.068282 -0.207031,-0.097656 C 67.217497,1.0511205 67.142542,1.0237454 67.066406,1 l -0.0039,-0.001953 c -5.96e-4,-1.8541e-4 -0.0014,1.8497e-4 -0.002,0 -0.06884,-0.0212317 -0.138568,-0.0394779 -0.208985,-0.0546875 -0.01498,-0.003257 -0.02984,-0.006779 -0.04492,-0.009766 -0.0046,-6.6363e-4 -0.0091,-0.001315 -0.01367,-0.001953 -0.07239,-0.0142905 -0.145379,-0.0253691 -0.21875,-0.0332031 -0.085,-0.008928 -0.170396,-0.013491 -0.25586,-0.0136719 z M 59.933594,13.285156 c 0.243504,0.943663 1.093787,1.603657 2.068359,1.605469 0.976027,-3.3e-5 1.828397,-0.6604 2.072266,-1.605469 z"
       transform="translate(0,-28.131)"
       style="fill:#ffffff;fill-opacity:1"
       sodipodi:nodetypes="cscccccccssccccccssccsccccccccccccccccccccccsccccccccccccccccccccsccccccccssccccccccccccccccccccccccccsccccccccccccccccccccc" />
  </g>
  <g
     id="22-22-notification-inactive"
     class="ColorScheme-Text"
     transform="translate(0,67.988)"
     fill="currentColor">
    <path
       id="path39"
       class="ColorScheme-Text"
       d="m 62.068359,39.089844 c -0.591164,-1.12e-4 -1.070424,0.479149 -1.070312,1.070312 v 0.0098 c -1.887673,0.487965 -3.208798,2.31979 -3.210938,4.269531 0,0 9.92e-4,5.351967 -1.77539,6.017578 -0.01712,0.01062 -0.02478,0.03101 -0.04297,0.04492 -0.0672,0.05263 -0.125273,0.115982 -0.171875,0.1875 -0.01926,0.02889 -0.04165,0.05101 -0.05664,0.08203 -0.0584,0.11022 -0.08985,0.232707 -0.0918,0.357422 0,0.444099 0.358639,0.802735 0.802734,0.802735 h 11.234375 c 0.445164,0 0.802734,-0.35864 0.802734,-0.802735 -0.0019,-0.124715 -0.0334,-0.247202 -0.0918,-0.357422 -0.01499,-0.03211 -0.03649,-0.05315 -0.05469,-0.08203 -0.04717,-0.07168 -0.105912,-0.135044 -0.173828,-0.1875 -0.01713,-0.01289 -0.02477,-0.03422 -0.04297,-0.04492 -1.070644,-0.401174 -1.493408,-2.501267 -1.662109,-4.109375 -0.02612,6.29e-4 -0.05186,0.002 -0.07813,0.002 -1.78604,0 -3.25,-1.46396 -3.25,-3.25 0,-0.973035 0.434755,-1.850064 1.11914,-2.447265 -0.341886,-0.212292 -0.715166,-0.379061 -1.115234,-0.482422 v -0.0098 c 1.15e-4,-0.591154 -0.47915,-1.070424 -1.070313,-1.070312 z m 4.316407,1.509765 c -0.10673,0 -0.211243,0.01046 -0.314454,0.02344 -0.02871,0.0034 -0.05736,0.0073 -0.08594,0.01172 -0.09415,0.01519 -0.187026,0.03516 -0.277344,0.06055 -0.01174,0.0032 -0.02346,0.0064 -0.03516,0.0098 -0.105115,0.03121 -0.205859,0.06911 -0.304687,0.113281 -0.01701,0.0076 -0.03394,0.01544 -0.05078,0.02344 -0.08524,0.04043 -0.168443,0.08531 -0.248047,0.134765 -0.01771,0.01085 -0.0353,0.02192 -0.05273,0.0332 -0.09008,0.05909 -0.174383,0.123447 -0.255859,0.193359 -0.01049,0.009 -0.02091,0.01814 -0.03125,0.02734 -0.07498,0.06652 -0.146376,0.137908 -0.212891,0.21289 -0.0092,0.01034 -0.01832,0.02076 -0.02734,0.03125 -0.06991,0.08147 -0.134264,0.165784 -0.193359,0.25586 -0.01129,0.01744 -0.02236,0.03502 -0.0332,0.05273 -0.04945,0.0796 -0.09434,0.162809 -0.134766,0.248047 -0.008,0.01684 -0.01582,0.03377 -0.02344,0.05078 -0.04335,0.09699 -0.08045,0.195773 -0.111328,0.298828 -0.0047,0.01688 -0.0093,0.03381 -0.01367,0.05078 -0.02399,0.08668 -0.04397,0.175441 -0.05859,0.265625 -0.0044,0.02922 -0.0083,0.05853 -0.01172,0.08789 -0.01298,0.103209 -0.02344,0.207723 -0.02344,0.314453 0,0.10673 0.01046,0.211245 0.02344,0.314453 0.0034,0.02936 0.0073,0.05866 0.01172,0.08789 0.01462,0.09018 0.0346,0.17895 0.05859,0.265625 0.0044,0.01697 0.0089,0.0339 0.01367,0.05078 0.03088,0.103055 0.06798,0.201837 0.111328,0.298829 0.0076,0.01701 0.01544,0.03394 0.02344,0.05078 0.04043,0.08524 0.08531,0.168444 0.134766,0.248047 0.01085,0.01771 0.02192,0.03529 0.0332,0.05273 0.05909,0.09008 0.123447,0.174383 0.193359,0.255859 0.009,0.01049 0.01814,0.02091 0.02734,0.03125 0.06651,0.07498 0.13791,0.146376 0.212891,0.212891 0.01034,0.0092 0.02076,0.01832 0.03125,0.02734 0.08148,0.06991 0.165783,0.134264 0.255859,0.193359 0.01744,0.01129 0.03502,0.02235 0.05273,0.0332 0.0796,0.04946 0.162809,0.09434 0.248047,0.134766 0.01684,0.008 0.03377,0.01581 0.05078,0.02344 0.09883,0.04417 0.199572,0.08207 0.304687,0.113282 0.0117,0.0033 0.02341,0.0066 0.03516,0.0098 0.09032,0.02539 0.183195,0.04536 0.277344,0.06055 0.02858,0.0044 0.05723,0.0083 0.08594,0.01172 0.103211,0.01298 0.207724,0.02344 0.314454,0.02344 0.10673,0 0.211244,-0.01046 0.314453,-0.02344 0.02936,-0.0034 0.05867,-0.0073 0.08789,-0.01172 0.09018,-0.01462 0.17895,-0.0346 0.265625,-0.05859 0.01697,-0.0044 0.0339,-0.0089 0.05078,-0.01367 0.103055,-0.03088 0.201836,-0.06798 0.298828,-0.111329 0.01701,-0.0076 0.03394,-0.01544 0.05078,-0.02344 0.08524,-0.04043 0.168443,-0.08531 0.248047,-0.134766 0.01771,-0.01085 0.0353,-0.02192 0.05273,-0.0332 0.09008,-0.05909 0.174385,-0.123447 0.25586,-0.193359 0.01118,-0.0096 0.0222,-0.01951 0.0332,-0.0293 0.06769,-0.06018 0.132555,-0.124285 0.193359,-0.191406 0.01921,-0.01987 0.0381,-0.04005 0.05664,-0.06055 0.06582,-0.07765 0.125559,-0.158783 0.18164,-0.244141 0.01198,-0.01937 0.02371,-0.0389 0.03516,-0.05859 0.04398,-0.07107 0.08427,-0.14513 0.121093,-0.220703 0.01494,-0.0303 0.02927,-0.06091 0.04297,-0.0918 0.04004,-0.09148 0.07451,-0.184443 0.103516,-0.28125 0.0047,-0.01688 0.0093,-0.03381 0.01367,-0.05078 0.024,-0.08667 0.04398,-0.17544 0.05859,-0.265625 0.0044,-0.02922 0.0083,-0.05853 0.01172,-0.08789 0.01298,-0.103208 0.02344,-0.207723 0.02344,-0.314453 -1.81e-4,-0.08546 -0.0047,-0.170862 -0.01367,-0.255859 -0.0082,-0.08325 -0.0206,-0.166038 -0.03711,-0.248047 -0.0169,-0.08041 -0.03776,-0.159929 -0.0625,-0.238281 v -0.002 c -4.34e-4,-0.0014 -0.0015,-0.0025 -0.002,-0.0039 -0.02375,-0.07614 -0.05112,-0.15109 -0.08203,-0.224609 -0.0262,-0.06167 -0.05487,-0.12227 -0.08594,-0.181641 -0.0039,-0.0078 -0.0078,-0.01565 -0.01172,-0.02344 -0.0092,-0.01722 -0.01969,-0.03381 -0.0293,-0.05078 -0.02998,-0.05324 -0.0619,-0.105354 -0.0957,-0.15625 -0.0026,-0.0046 -0.0052,-0.0091 -0.0078,-0.01367 -0.0042,-0.0062 -0.0094,-0.01141 -0.01367,-0.01758 -0.03926,-0.05837 -0.08096,-0.115065 -0.125,-0.169922 l -0.0039,-0.0039 c -0.05115,-0.06181 -0.105252,-0.121126 -0.162109,-0.177735 -0.05661,-0.05686 -0.115923,-0.110956 -0.177735,-0.162109 -0.0014,-0.0012 -0.0025,-0.0027 -0.0039,-0.0039 -0.05486,-0.04404 -0.111548,-0.08574 -0.169922,-0.125 -0.0058,-0.0046 -0.0117,-0.0091 -0.01758,-0.01367 -0.0031,-0.0021 -0.0066,-0.0038 -0.0098,-0.0059 l -0.0039,-0.002 c -0.05585,-0.03745 -0.113188,-0.07264 -0.171875,-0.105469 -0.0071,-0.0046 -0.0143,-0.0092 -0.02148,-0.01367 -0.0038,-0.0021 -0.0079,-0.0038 -0.01172,-0.0059 -0.06748,-0.0357 -0.136566,-0.06828 -0.207031,-0.09766 -0.07346,-0.03091 -0.148474,-0.05828 -0.22461,-0.08203 l -0.0039,-0.002 h -0.002 c -0.06884,-0.02123 -0.138567,-0.03948 -0.208984,-0.05469 -0.01498,-0.0033 -0.02984,-0.0068 -0.04492,-0.0098 -0.0046,-6.65e-4 -0.0091,-0.0013 -0.01367,-0.002 -0.07239,-0.01429 -0.145379,-0.02537 -0.21875,-0.0332 -0.085,-0.0089 -0.170395,-0.01349 -0.255859,-0.01367 z M 60,53 c 0.243504,0.943663 1.093787,1.603657 2.068359,1.605469 0.976027,-3.3e-5 1.828397,-0.6604 2.072266,-1.605469 z"
       transform="translate(0,-67.988)"
       sodipodi:nodetypes="cscccccccssccccccssccsccccccscccscccccscccccsccccscccscccccscccccsccccscccsccccccccccccccccccccccccccccccccccccccccccccccccc"
       style="fill:#ffffff;fill-opacity:1" />
    <rect
       x="51.002"
       y="-31.998"
       width="22"
       height="22"
       ry="0"
       opacity="0"
       id="rect37" />
  </g>
  <g
     id="22-22-notification-disabled"
     class="ColorScheme-Text"
     transform="translate(0 -30.684)"
     fill="currentColor">
    <rect
       x=".089057"
       y="65.674"
       width="22"
       height="22"
       ry="0"
       opacity="0"
       id="rect44" />
    <path
       id="path46"
       d="m 10.927734,38.089844 c -0.591164,-1.11e-4 -1.0704239,0.479148 -1.0703121,1.070312 v 0.0098 c -1.8876734,0.48797 -3.2087969,2.31979 -3.2109375,4.269531 0,0 9.91e-4,5.351969 -1.7753906,6.017578 -0.017122,0.01062 -0.02478,0.03101 -0.042969,0.04492 -0.067203,0.05263 -0.1252731,0.115982 -0.171875,0.1875 -0.019257,0.02889 -0.041654,0.05101 -0.056641,0.08203 -0.058396,0.11022 -0.089853,0.232704 -0.091797,0.357422 0,0.444095 0.3586387,0.802735 0.8027344,0.802735 H 16.544922 c 0.445164,0 0.802734,-0.35864 0.802734,-0.802735 -0.0019,-0.124718 -0.0334,-0.247202 -0.0918,-0.357422 -0.01499,-0.03211 -0.03649,-0.05315 -0.05469,-0.08203 -0.04717,-0.07168 -0.105914,-0.135044 -0.173828,-0.1875 -0.01713,-0.01289 -0.02477,-0.03422 -0.04297,-0.04492 -1.776375,-0.665609 -1.775391,-6.017578 -1.775391,-6.017578 -0.0021,-1.949741 -1.322194,-3.781561 -3.210937,-4.269531 v -0.0098 c 1.12e-4,-0.591163 -0.47915,-1.070423 -1.070313,-1.070312 z M 8.859375,52 c 0.2435038,0.943663 1.0937874,1.603657 2.068359,1.605469 C 11.903761,53.605436 12.756131,52.945069 13,52 Z"
       transform="translate(0,30.684)"
       sodipodi:nodetypes="cscccccccsscccccccsccccc"
       style="fill:#ffffff;fill-opacity:0.27145708" />
  </g>
  <g
     id="notification-empty">
    <rect
       width="32"
       height="32"
       ry="0"
       opacity="0"
       id="rect334"
       x="0"
       y="80"
       style="color:#363636;fill:#363636;stroke-width:1.45455" />
    <path
       id="rect394"
       class="ColorScheme-Text"
       d="m 16.027344,86.039062 c -0.778089,-1.46e-4 -1.40835,0.630116 -1.408203,1.408204 v 0.01367 c -2.484551,0.642262 -4.223746,3.052896 -4.226563,5.61914 0,0 0.0021,7.043852 -2.3359374,7.919922 -0.02253,0.0139 -0.032691,0.0403 -0.056641,0.0586 -0.08845,0.0692 -0.1652245,0.15393 -0.2265625,0.24805 -0.02535,0.038 -0.054489,0.0666 -0.074219,0.10742 -0.07687,0.14506 -0.1185268,0.30655 -0.1210938,0.47071 0,0.58451 0.4721236,1.05664 1.0566406,1.05664 H 23.421875 c 0.585924,0 1.056641,-0.47213 1.056641,-1.05664 -0.0025,-0.16416 -0.04423,-0.32565 -0.121094,-0.47071 -0.01973,-0.0422 -0.04832,-0.0695 -0.07227,-0.10742 -0.06209,-0.0944 -0.139127,-0.179 -0.228515,-0.24805 C 24.034091,101.04159 24.02396,101.0141 24,101 21.661944,100.12392 21.664062,93.080078 21.664062,93.080078 21.661262,90.513834 19.92346,88.103202 17.4375,87.460938 v -0.01367 c 1.48e-4,-0.778082 -0.632069,-1.40835 -1.410156,-1.408204 z m -2.720703,18.308598 c 0.3205,1.24206 1.437973,2.1109 2.720703,2.11328 1.284645,-4e-5 2.407535,-0.86938 2.728515,-2.11328 z"
       sodipodi:nodetypes="cscccccccsscccccccsccccc"
       style="fill:#f1f1f1;fill-opacity:1" />
  </g>
  <g
     id="notification-active">
    <rect
       width="32"
       height="32"
       ry="0"
       opacity="0"
       id="rect1142"
       x="50"
       y="80"
       style="color:#363636;fill:#363636;stroke-width:1.45455" />
    <path
       id="path1144"
       class="ColorScheme-Text"
       d="M 66 83 A 3 3 0 0 0 63 86 A 3 3 0 0 0 63.060547 86.560547 C 60.098209 87.73334 58 90.622956 58 94 L 58 96 C 57.9905 98.70874 56.982456 101.31873 55.167969 103.33008 A 1.0001 1.0001 0 0 0 55.910156 105 L 59 105 L 73 105 L 76.074219 105 A 1.0001 1.0001 0 0 0 76.818359 103.33203 C 75.008636 101.31808 74.005138 98.707547 74 96 L 74 94 C 74 93.85929 73.991571 93.72096 73.984375 93.582031 A 5 5 0 0 1 72 94 L 72 96 A 1.0001 1.0001 0 0 0 72 96.001953 C 72.0044 98.539004 72.933651 100.9011 74.308594 103 L 73 103 L 59 103 L 57.679688 103 C 59.058283 100.90281 59.991954 98.541608 60 96.003906 A 1.0001 1.0001 0 0 0 60 96.001953 A 1.0001 1.0001 0 0 0 60 96 L 60 94 C 60 90.658723 62.658723 88 66 88 C 66.374084 88 66.737597 88.037683 67.091797 88.101562 A 5 5 0 0 1 68.867188 85.115234 A 3 3 0 0 0 66 83 z M 63 107 A 3 3 0 0 0 66 110 A 3 3 0 0 0 69 107 L 63 107 z "
       fill="currentColor" />
    <circle
       class="ColorScheme-Text"
       cx="72"
       cy="89"
       r="3"
       fill="currentColor"
       id="circle1150" />
  </g>
  <g
     id="notification-inactive">
    <rect
       width="32"
       height="32"
       ry="0"
       opacity="0"
       id="rect1175"
       x="50"
       y="125"
       style="color:#363636;fill:#363636;stroke-width:1.45455" />
    <path
       id="path1177"
       class="ColorScheme-Text"
       d="m 66,128 a 3,3 0 0 0 -3,3 3,3 0 0 0 0.06055,0.56055 C 60.098209,132.73334 58,135.62296 58,139 v 2 c -0.0095,2.70874 -1.017544,5.31873 -2.832031,7.33008 A 1.0001,1.0001 0 0 0 55.910156,150 H 59 73 76.074219 a 1.0001,1.0001 0 0 0 0.74414,-1.66797 C 75.008636,146.31808 74.005138,143.70755 74,141 v -2 c 0,-0.14071 -0.0084,-0.27904 -0.01563,-0.41797 A 5,5 0 0 1 72,139 v 2 a 1.0001,1.0001 0 0 0 0,0.002 c 0.0044,2.537 0.933651,4.8991 2.308594,6.998 H 73 59 57.679688 C 59.058283,145.90281 59.991954,143.54161 60,141.00391 a 1.0001,1.0001 0 0 0 0,-0.002 1.0001,1.0001 0 0 0 0,-0.002 v -2 c 0,-3.34128 2.658723,-6 6,-6 0.374084,0 0.737597,0.0377 1.091797,0.10156 A 5,5 0 0 1 68.867188,130.11523 3,3 0 0 0 66,128 Z m -3,24 a 3,3 0 0 0 3,3 3,3 0 0 0 3,-3 z"
       fill="currentColor" />
    <circle
       class="ColorScheme-Text"
       cx="72"
       cy="134"
       r="3"
       fill="currentColor"
       id="circle1179"
       style="opacity:0.35" />
  </g>
  <g
     id="notification-disabled">
    <rect
       width="32"
       height="32"
       ry="0"
       opacity="0"
       id="rect1169"
       x="0"
       y="125"
       style="color:#363636;fill:#363636;stroke-width:1.45455" />
    <path
       id="path1171"
       d="m 16,128 a 3,3 0 0 0 -3,3 3,3 0 0 0 0.06055,0.56055 C 10.098209,132.73334 8,135.62295 8,139 v 2 c -0.0095,2.70874 -1.017542,5.31873 -2.832031,7.33008 A 1.0001,1.0001 0 0 0 5.910156,150 H 9 23 26.074219 a 1.0001,1.0001 0 0 0 0.74414,-1.66797 C 25.008634,146.31808 24.005138,143.70755 24,141 v -2 c 0,-3.37705 -2.098209,-6.26666 -5.060547,-7.43945 A 3,3 0 0 0 19,131 3,3 0 0 0 16,128 Z m 0,5 c 3.34128,0 6,2.65872 6,6 v 2 a 1.0001,1.0001 0 0 0 0,0.002 c 0.0044,2.53705 0.93365,4.89915 2.308594,6.99805 H 23 9 7.679688 C 9.058285,145.90286 9.991954,143.54166 10,141.00395 a 1.0001,1.0001 0 0 0 0,-0.002 1.0001,1.0001 0 0 0 0,-0.002 v -2 c 0,-3.34128 2.65872,-6 6,-6 z m -3,19 a 3,3 0 0 0 3,3 3,3 0 0 0 3,-3 z"
       class="ColorScheme-Text"
       fill="currentColor"
       style="opacity:0.35" />
    <path
       class="ColorScheme-Text"
       d="m 4.6862865,128.27209 24.0416305,24.04163 c 0.42187,0.42187 0.391743,1.02251 8e-6,1.4142 -0.391745,0.39175 -0.992315,0.42187 -1.414212,-1e-5 L 3.2720821,129.68628 c -0.42187,-0.42187 -0.3917406,-1.02251 -4.7e-6,-1.4142 0.3917443,-0.39175 0.992312,-0.42188 1.4142091,1e-5 z"
       id="path1188"
       fill="currentColor" />
  </g>
  <g
     id="notification-progress-active"
     class="ColorScheme-Text"
     transform="matrix(1.4545455,0,0,1.4545455,46.818182,81.454545)"
     fill="currentColor">
    <rect
       x="40"
       y="-1"
       width="22"
       height="22"
       fill-opacity="0"
       id="rect1351" />
    <path
       id="path1353"
       d="M 50.999998,1.0625003 A 8.9368939,8.9368939 0 0 0 42.062499,10 8.9368939,8.9368939 0 0 0 50.999998,18.9375 8.9368939,8.9368939 0 0 0 59.937498,10 8.9368939,8.9368939 0 0 0 50.999998,1.0625003 Z m 0,1.3749999 A 7.5625,7.5625 0 0 1 58.562498,10 7.5625,7.5625 0 0 1 50.999998,17.5625 7.5625,7.5625 0 0 1 43.437499,10 7.5625,7.5625 0 0 1 50.999998,2.4375002 Z" />
    <circle
       cx="51"
       cy="10"
       r="6.1875"
       id="circle1355" />
  </g>
  <g
     id="notification-progress-inactive">
    <rect
       x="105"
       y="125.00001"
       width="32"
       height="32"
       fill-opacity="0"
       id="rect1365"
       style="color:#363636;fill:#363636;stroke-width:1.45455" />
    <path
       id="path1367"
       d="M 121,128.00001 A 12.999119,12.999119 0 0 0 108,141 12.999119,12.999119 0 0 0 121,154.00001 12.999119,12.999119 0 0 0 134,141 12.999119,12.999119 0 0 0 121,128.00001 Z M 121,130 a 11,11 0 0 1 11,11 11,11 0 0 1 -11,11.00001 A 11,11 0 0 1 110,141 11,11 0 0 1 121,130 Z"
       style="color:#363636;fill:#363636;stroke-width:1.45455" />
    <circle
       cx="121"
       cy="141"
       r="9"
       id="circle1369"
       style="color:#363636;opacity:0.35;fill:#363636;stroke-width:1.45455" />
  </g>
  <g
     id="circle1241" />
</svg>
